HIERARCHY
ROOT Hips
{
     OFFSET 11.22580 95.61000 18.55810
     CHANNELS 6 Xposition Yposition Zposition Zrotation Xrotation Yrotation
     JOINT Spine
     {
          OFFSET 0.00000 11.89050 0.00000
          CHANNELS 3 Zrotation Xrotation Yrotation
          JOINT Spine1
          {
               OFFSET 0.00000 25.65740 0.12766
               CHANNELS 3 Zrotation Xrotation Yrotation
               JOINT HEad
               {
                    OFFSET -0.00000 8.73416 0.01134
                    CHANNELS 3 Zrotation Xrotation Yrotation
                    End Site
                    {
                         OFFSET -0.29000 12.77420 2.51395
                    }
               }
               JOINT LeftShoulder1
               {
                    OFFSET 8.99000 -0.36225 -0.22000
                    CHANNELS 3 Zrotation Xrotation Yrotation
                    JOINT LeftArm
                    {
                         OFFSET 10.28270 -0.00338 0.32212
                         CHANNELS 3 Zrotation Xrotation Yrotation
                         JOINT LeftForeArm
                         {
                              OFFSET 32.76690 0.09914 -1.42434
                              CHANNELS 3 Zrotation Xrotation Yrotation
                              JOINT LeftHand
                              {
                                   OFFSET 27.56430 0.08536 1.02216
                                   CHANNELS 3 Zrotation Xrotation Yrotation
                                   End Site
                                   {
                                        OFFSET 16.74430 -0.60000 1.50291
                                   }
                              }
                         }
                    }
               }
               JOINT RightShoulder
               {
                    OFFSET -8.99000 -0.36225 -0.22000
                    CHANNELS 3 Zrotation Xrotation Yrotation
                    JOINT RightArm
                    {
                         OFFSET -10.28270 -0.00338 0.32212
                         CHANNELS 3 Zrotation Xrotation Yrotation
                         JOINT RightForeArm
                         {
                              OFFSET -32.89710 0.09914 -1.42434
                              CHANNELS 3 Zrotation Xrotation Yrotation
                              JOINT RightHand
                              {
                                   OFFSET -27.49210 0.08536 1.02216
                                   CHANNELS 3 Zrotation Xrotation Yrotation
                                   End Site
                                   {
                                        OFFSET -16.63120 -0.60000 1.50291
                                   }
                              }
                         }
                    }
               }
          }
     }
     JOINT LeftUpLeg
     {
          OFFSET 8.94580 -8.66707 0.10165
          CHANNELS 3 Zrotation Xrotation Yrotation
          JOINT LeftLeg
          {
               OFFSET -0.00000 -44.42270 1.37270
               CHANNELS 3 Zrotation Xrotation Yrotation
               JOINT LeftFoot
               {
                    OFFSET -0.25355 -42.09240 -1.46059
                    CHANNELS 3 Zrotation Xrotation Yrotation
                    JOINT LeftToes
                    {
                         OFFSET -0.04000 -4.41509 8.49910
                         CHANNELS 3 Zrotation Xrotation Yrotation
                         End Site
                         {
                              OFFSET 0.08000 -0.04745 9.77979
                         }
                    }
               }
          }
     }
     JOINT RightUpLeg
     {
          OFFSET -8.94580 -8.66707 0.10165
          CHANNELS 3 Zrotation Xrotation Yrotation
          JOINT RightLeg
          {
               OFFSET 0.00000 -44.42270 1.37270
               CHANNELS 3 Zrotation Xrotation Yrotation
               JOINT RightFoot
               {
                    OFFSET 0.25355 -42.09240 -1.46059
                    CHANNELS 3 Zrotation Xrotation Yrotation
                    JOINT RightToes
                    {
                         OFFSET 0.04000 -4.41509 8.49910
                         CHANNELS 3 Zrotation Xrotation Yrotation
                         End Site
                         {
                              OFFSET -0.08000 -0.13745 9.77979
                         }
                    }
               }
          }
     }
}
MOTION
Frames: 20
Frame Time: 0.01667
11.22580 95.61000 18.55810 -2.33865 -11.54220 -28.29020 -4.14234 10.11610 -0.53335 -6.68194 20.05720 -0.30380 8.71848 -11.70900 -21.25250 -0.00000 -0.00000 0.00000 -65.20360 -22.27130 -69.67210 -15.00790 -1.66753 -74.36420 14.89070 7.32190 -16.41330 20.29630 1.35745 3.63465 87.30700 -19.53770 72.27070 19.27790 36.57730 98.15980 15.66590 11.78950 8.96858 14.45390 -3.08011 -8.22874 -20.27620 7.01662 53.76030 0.04425 12.48800 -0.09828 3.07416 -26.81640 -64.92580 -26.35200 5.44276 14.91970 32.93100 9.80969 -34.51440 -43.81190 5.28994 5.12040 16.32180 -59.02630 23.06730 
11.28720 95.64280 19.00320 -2.56060 -11.48300 -30.48610 -3.99941 10.11760 -0.74124 -6.59984 20.09520 -0.71365 9.08695 -11.79010 -23.39670 -0.00000 -0.00000 0.00000 -64.78460 -21.74830 -68.66380 -14.82680 -2.29382 -74.36520 14.51790 7.38463 -16.46110 20.51910 1.32890 3.45978 86.79330 -19.04000 71.85050 19.00580 36.44790 98.60840 15.19720 11.70500 8.75314 14.74410 -2.30781 -7.69485 -20.77560 7.01868 55.07180 -0.29347 11.80990 -0.03681 3.05498 -26.91150 -64.55340 -26.39950 4.52779 14.52460 32.84690 10.97060 -33.79130 -43.74630 5.46941 5.18441 15.97130 -58.82220 22.52590 
11.33440 95.67250 19.46000 -2.86116 -11.39860 -32.92730 -3.86302 10.12370 -0.95436 -6.46946 20.14230 -1.16025 9.41552 -11.79930 -25.33380 -0.00000 -0.00000 0.00000 -64.92120 -21.63360 -67.64300 -15.02910 -2.09962 -74.59710 14.33660 7.43088 -16.35640 20.84560 1.29652 3.25025 86.13240 -18.48900 71.40050 19.00540 36.35220 98.91890 14.67210 11.59830 8.40551 15.07290 -1.50891 -7.27521 -21.30620 7.09098 56.60900 -0.74712 11.06490 0.03958 3.07366 -26.94390 -63.94830 -26.45390 3.62816 14.00500 32.95090 11.98470 -33.49210 -43.67970 5.75070 5.28918 15.81110 -58.70630 22.29530 
11.36360 95.70450 19.93730 -3.26102 -11.26390 -35.60010 -3.69475 10.12860 -1.17584 -6.26967 20.18910 -1.64205 9.68488 -11.78260 -27.00520 -0.00000 -0.00000 0.00000 -65.63240 -21.94180 -66.60200 -15.63340 -1.04086 -75.07770 14.37380 7.45857 -16.07470 21.24580 1.25475 2.99166 85.50600 -18.02340 71.00560 19.35090 36.31410 98.94470 14.42780 11.53080 8.10006 15.47180 -0.65773 -7.07938 -21.92470 7.15269 58.31390 -1.19963 10.11170 0.10904 3.20408 -26.74960 -62.87680 -26.47490 2.74352 13.35740 33.28790 12.87650 -33.68080 -43.38110 6.10726 5.39158 15.66370 -58.48590 22.17930 
11.36080 95.73230 20.44260 -3.74056 -11.04110 -38.51560 -3.48726 10.11910 -1.39291 -6.00235 20.20710 -2.13152 9.87121 -11.78900 -28.36910 -0.00000 -0.00000 0.00000 -66.93530 -22.69720 -65.56230 -16.57670 0.92810 -75.74470 14.65020 7.46302 -15.63890 21.67790 1.20223 2.69007 85.01430 -17.70940 70.68620 19.90270 36.31080 98.69540 14.58710 11.53680 8.01506 15.94160 0.23520 -7.12111 -22.64560 7.17449 60.22160 -1.55889 8.90095 0.15546 3.43057 -26.33610 -61.36530 -26.44950 1.87716 12.54050 33.85740 13.59800 -34.53380 -42.98680 6.53114 5.50499 15.64260 -58.29010 22.30430 
11.30580 95.74700 20.97720 -4.26248 -10.70740 -41.69410 -3.27630 10.08370 -1.58583 -5.69179 20.16900 -2.59560 9.95745 -11.83570 -29.41790 -0.00000 -0.00000 0.00000 -68.78620 -23.89860 -64.55740 -17.73730 3.75034 -76.48580 15.16490 7.43726 -15.13350 22.11730 1.14185 2.36447 84.54380 -17.44750 70.34470 20.41120 36.26560 98.35240 14.86540 11.58870 8.17582 16.44660 1.13099 -7.32771 -23.41170 7.22386 62.46010 -1.88945 7.55018 0.18908 3.66215 -25.87870 -59.74580 -26.37690 1.07295 11.51440 34.62500 14.04260 -36.16320 -42.84850 6.96176 5.65550 15.84530 -58.28960 22.72860 
11.18120 95.74950 21.53790 -4.79246 -10.27170 -45.12630 -3.10137 10.01670 -1.75179 -5.36895 20.06310 -3.03133 9.95778 -11.87590 -30.16690 -0.00000 -0.00000 0.00000 -71.03350 -25.45400 -63.60910 -18.98730 7.15407 -77.21480 15.85590 7.38058 -14.67040 22.55380 1.07630 2.02882 83.96340 -17.10300 69.86590 20.75850 36.14830 98.08170 14.94850 11.63570 8.45360 16.92840 2.00244 -7.64258 -24.15250 7.38375 65.08260 -2.37186 6.19747 0.23328 3.86904 -25.43050 -58.26300 -26.25690 0.39813 10.27410 35.55980 14.14950 -38.44840 -43.09560 7.21360 5.79209 16.03230 -58.30680 23.10350 
10.97930 95.74800 22.11460 -5.30520 -9.76337 -48.74770 -2.97429 9.92198 -1.91085 -5.05236 19.90020 -3.47242 9.91892 -11.83130 -30.63230 -0.00000 -0.00000 0.00000 -73.48070 -27.20030 -62.74590 -20.24910 10.73380 -77.90290 16.56860 7.30948 -14.32260 22.95590 1.00491 1.68489 83.32290 -16.62900 69.20890 20.97890 36.00350 97.94920 14.82270 11.65280 8.68386 17.34030 2.83285 -8.11118 -24.85750 7.67694 68.02150 -3.14833 4.87530 0.29887 4.12103 -24.78540 -56.84430 -26.09070 -0.08383 8.82098 36.64430 13.92310 -41.15200 -43.52130 7.05351 5.79167 15.78850 -57.91620 22.93870 
10.69780 95.74980 22.68680 -5.78671 -9.20595 -52.47600 -2.90049 9.81116 -2.08171 -4.74758 19.70540 -3.95062 9.89659 -11.66770 -30.81960 -0.00000 -0.00000 0.00000 -76.00840 -29.02490 -62.02660 -21.55980 14.21530 -78.53010 17.13040 7.24875 -14.10080 23.28380 0.92439 1.32336 82.76140 -16.02840 68.39050 21.13310 35.87240 97.97350 14.67010 11.64670 8.76797 17.67400 3.60111 -8.78409 -25.56290 8.09499 71.12810 -4.20685 3.55090 0.37421 4.49648 -23.66700 -55.23620 -25.86290 -0.31889 7.17036 37.84500 13.34590 -44.11270 -43.84080 6.33308 5.54725 14.88000 -56.78080 21.99080 
10.34850 95.69080 23.25250 -6.31791 -8.47959 -56.26440 -2.58506 9.70216 -2.31185 -4.35421 19.50950 -4.45819 9.92824 -11.41190 -30.70220 -0.00000 -0.00000 0.00000 -78.60870 -30.95570 -61.52420 -23.05050 17.61790 -79.02640 17.49530 7.20688 -13.98030 23.53880 0.84032 0.96372 82.33680 -15.31520 67.44750 21.22990 35.73980 98.16000 14.63900 11.63720 8.72316 18.07470 3.97848 -9.53638 -26.35360 9.29053 74.25230 -5.68951 2.12891 0.45768 4.99247 -21.96530 -53.19320 -25.37930 -0.38140 5.35067 39.12980 12.57750 -47.33190 -43.79110 4.94559 4.97811 13.36280 -54.77100 20.31680 
9.90107 95.65370 23.74800 -6.77808 -7.70346 -60.14390 -2.41989 9.59775 -2.52922 -4.04875 19.31250 -4.96375 10.00640 -11.10160 -30.22110 -0.00000 -0.00000 0.00000 -81.33760 -33.11640 -61.30800 -24.80130 21.16280 -79.27890 17.80030 7.16254 -13.94460 23.75300 0.76849 0.66198 82.01780 -14.51740 66.43170 21.20280 35.56280 98.52360 14.73590 11.63780 8.64554 18.46850 4.28413 -10.26320 -27.23420 10.63560 77.18270 -7.10138 0.89056 0.50963 5.53092 -19.73250 -50.56230 -24.72430 -0.16624 3.57251 40.32730 11.29150 -50.62860 -43.37790 3.07941 4.17614 11.49370 -51.89380 18.21120 
9.32332 95.78330 24.09000 -7.03160 -7.10736 -64.19950 -2.93279 9.46522 -2.62439 -3.83261 19.10200 -5.42465 10.08620 -10.74830 -29.32120 -0.00000 -0.00000 0.00000 -84.23800 -35.58260 -61.44090 -26.74050 25.00720 -79.20340 18.23020 7.08125 -14.01540 23.95400 0.72188 0.46361 81.77080 -13.69290 65.41470 20.96540 35.34010 99.07590 14.86400 11.64950 8.62498 18.72720 4.97339 -10.92530 -28.17580 11.19390 79.76750 -7.86589 0.19740 0.52367 6.01616 -17.03100 -47.30360 -24.07370 0.55445 2.13969 41.22920 8.91372 -53.61560 -42.85420 1.09007 3.32957 9.64406 -48.31380 16.21330 
8.64142 96.03850 24.26140 -7.12319 -6.72810 -68.45870 -4.06119 9.27721 -2.59423 -3.87573 18.84570 -5.82095 10.13390 -10.33140 -28.00240 -0.00000 -0.00000 0.00000 -87.19350 -38.21800 -61.92820 -28.70500 28.95490 -78.83590 18.79810 6.95539 -14.21700 24.18280 0.70815 0.39235 81.56960 -12.94270 64.46970 20.52950 35.11770 99.75940 14.94340 11.66750 8.69068 18.87910 5.76568 -11.44240 -29.26870 11.47110 82.16560 -8.03559 0.20778 0.53603 6.34835 -13.99860 -43.57600 -23.43960 1.74572 1.21342 41.82230 5.52749 -55.97330 -42.45830 -0.78355 2.55655 8.15961 -44.52510 14.90030 
7.91383 96.13000 24.30430 -7.19790 -6.48160 -72.80630 -5.37535 9.06078 -2.55506 -3.92439 18.59310 -6.15729 10.14670 -9.83336 -26.35300 -0.00000 -0.00000 0.00000 -89.86160 -40.65870 -62.65970 -30.50430 32.47600 -78.36700 19.31550 6.82164 -14.50290 24.49610 0.72817 0.44417 81.36510 -12.34480 63.63860 20.03650 34.92820 100.44200 14.97820 11.68510 8.79066 18.97810 5.72862 -11.63180 -30.72390 13.34030 84.81540 -8.13361 1.00348 0.59426 6.46371 -11.04430 -39.91610 -22.81500 2.34646 0.47114 42.28860 3.50039 -57.96930 -41.68690 -2.79432 1.72434 7.23257 -41.39160 14.52160 
7.14871 96.10020 24.20130 -7.32036 -6.61739 -77.18320 -7.33257 8.79247 -2.43129 -4.05450 18.36160 -6.47094 10.12430 -9.28485 -24.53010 -0.00000 -0.00000 0.00000 -91.90240 -42.56760 -63.48230 -31.96390 35.14220 -78.02320 19.59660 6.72920 -14.76740 24.89460 0.76927 0.56694 81.12460 -11.88960 62.93360 19.68620 34.78150 100.97700 15.01730 11.69560 8.83425 18.83310 5.29571 -11.55900 -32.42100 16.01860 87.80130 -7.42720 2.90886 0.65202 6.45777 -8.55980 -37.23860 -22.54440 2.30884 -0.08458 42.51270 3.21572 -59.25480 -40.86480 -4.44752 1.05553 6.95296 -39.89300 14.94380 
6.43934 96.10430 24.03950 -7.66405 -6.76297 -81.51710 -9.26485 8.53641 -2.26059 -4.21542 18.20320 -6.77010 10.04960 -8.76720 -22.69020 -0.00000 -0.00000 0.00000 -93.31580 -43.90380 -64.37570 -33.07880 36.99290 -77.84400 19.61470 6.69504 -14.95010 25.28010 0.80775 0.67771 80.87400 -11.51100 62.37160 19.64970 34.69430 101.25700 15.07820 11.69430 8.77388 18.76640 4.76370 -11.40870 -34.19510 18.80540 90.93170 -5.70988 5.77789 0.61803 6.56820 -6.46843 -36.45080 -22.37160 2.43096 -0.15611 42.43160 3.07150 -59.24410 -41.00850 -4.91311 0.88211 7.38292 -40.63850 15.89090 
5.84311 96.11630 23.90160 -8.23925 -6.74921 -85.81570 -11.00870 8.32430 -2.00461 -4.38223 18.15780 -7.02106 9.89946 -8.37233 -20.92090 -0.00000 -0.00000 0.00000 -94.46730 -44.88070 -65.49630 -34.07210 38.42980 -77.62860 19.48430 6.69289 -15.09650 25.50900 0.82016 0.70379 80.69110 -11.14660 62.01110 19.93670 34.67950 101.28300 15.10990 11.67940 8.63935 18.80400 4.11129 -11.07630 -36.02670 21.77970 93.64180 -3.55532 8.94096 0.44401 6.97502 -4.80021 -38.00270 -22.26190 2.63935 0.17251 42.17180 3.09876 -58.08380 -42.07180 -4.21514 1.18591 8.48384 -43.36100 17.15210 
5.30007 96.14290 23.81700 -8.99087 -6.61827 -90.08790 -12.59600 8.17301 -1.67440 -4.51526 18.24690 -7.18442 9.65620 -8.16044 -19.21220 -0.00000 -0.00000 0.00000 -95.77730 -45.72070 -67.02300 -35.18680 39.83180 -77.15570 19.36530 6.67975 -15.29850 25.46230 0.80123 0.63826 80.68730 -10.76590 61.94950 20.31490 34.71120 101.18800 15.03640 11.65510 8.52316 18.80340 3.41783 -10.30870 -37.85640 24.96260 95.16530 -1.46778 11.71840 0.16124 7.60466 -4.49370 -41.72880 -22.28440 2.92888 0.72869 41.84700 3.28540 -56.14850 -43.62290 -2.80402 1.81595 10.03710 -46.94400 18.65250 
4.79116 96.18230 23.82410 -9.81949 -6.28300 -94.35180 -13.87220 8.10297 -1.31446 -4.57782 18.46500 -7.25634 9.30981 -8.13062 -17.47730 -0.00000 -0.00000 0.00000 -97.42340 -46.50760 -68.98390 -36.45740 41.29950 -76.40820 19.36930 6.62919 -15.59510 25.07220 0.77093 0.55854 80.96870 -10.36100 62.25980 20.50160 34.74160 101.11200 14.84490 11.63220 8.51357 18.76730 2.12823 -8.79735 -40.00520 29.34910 95.40450 -0.31569 13.56770 -0.03880 8.01509 -6.68727 -46.83830 -22.29810 3.24398 1.25970 41.49600 3.58223 -53.84690 -45.23400 -1.22846 2.56336 11.72400 -50.19500 20.35740 
4.30098 96.23930 23.93520 -10.59560 -5.67122 -98.60040 -14.71420 8.12394 -0.98908 -4.54400 18.76960 -7.25608 8.86244 -8.20673 -15.62780 -0.00000 -0.00000 0.00000 -99.30700 -47.23050 -71.22090 -37.69720 42.72280 -75.58220 19.51060 6.54584 -15.93720 24.35040 0.75172 0.54574 81.56940 -9.92099 62.91890 20.41430 34.75650 101.07100 14.60010 11.61820 8.61398 18.69900 0.99092 -6.90563 -41.70980 33.16360 94.25940 0.58282 14.56980 -0.21559 7.67064 -11.27830 -52.07280 -22.12830 3.52250 1.62400 41.07740 3.92975 -51.48810 -46.63790 0.17589 3.27048 13.31640 -52.60090 22.18320 
